<?xml version="1.0" encoding="utf-8"?>
<!-- Generator: Adobe Illustrator 21.1.0, SVG Export Plug-In . SVG Version: 6.00 Build 0)  -->
<svg version="1.1" id="Layer_1" xmlns="http://www.w3.org/2000/svg" xmlns:xlink="http://www.w3.org/1999/xlink" x="0px" y="0px"
	 viewBox="0 0 150 20" style="enable-background:new 0 0 150 20;" xml:space="preserve">
<style type="text/css">
	.st0{fill:#FFFFFF;}
</style>
<g>
	<path class="st0" d="M0.6,17c0,0,18.8-2.1,36.5-2.1c18.1,0,37,2.1,37,2.1v0.7c0,0-19-2-37-2c-17.8,0-36.5,2-36.5,2V17L0.6,17z
		 M7.8,13.5H6.2L3.4,7.8c-0.5-1.1-1.1-2.3-1.3-3L2,4.8c0.1,0.9,0.1,2,0.1,3l0.1,5.7H1.6c-0.7,0-0.9-0.7-0.9-1.4V2.7h1.8l3,6
		c0.5,0.9,1,2.3,1.1,2.6l0.1,0c0-0.3-0.2-2-0.2-3.2l0-5.3h1.5V13.5L7.8,13.5z M34.7,12.4l-0.4,1.3h-6.5v-1.2l4.4-6.9
		c0.2-0.4,0.5-0.8,0.8-1.1c-0.3,0-0.7,0-1.2,0h-3.7l0.4-1.3h6.2v1.2l-4.3,6.9c-0.2,0.4-0.5,0.7-0.7,1c0.3,0,0.7,0,1.1,0H34.7
		L34.7,12.4z M84.4,12.7c-0.9,0.5-2.1,0.9-3.2,0.9c-1.4,0-2.6-0.5-3.4-1.5c-0.9-1-1.3-2.3-1.3-4.1c0-1.5,0.6-3.2,1.9-4.2
		c0.8-0.6,1.6-0.9,2.7-0.9c1.2,0,2.2,0.3,3.1,1.1l-0.7,0.9c-0.8-0.6-1.5-0.8-2.3-0.8c-1,0-1.8,0.4-2.3,1.4c-0.4,0.7-0.6,1.4-0.6,2.7
		c0,1.5,0.3,2.6,0.8,3.3c0.5,0.6,1.4,1,2.3,1c0.6,0,1.2-0.2,1.6-0.4V8.9h-2l-0.3-1.2h3.7V12.7L84.4,12.7z M92.2,9.5
		c0,2.5-1.3,4.1-3.4,4.1c-2.1,0-3.4-1.6-3.4-4.2c0-2.5,1.3-4.1,3.4-4.1C91.1,5.3,92.2,7.1,92.2,9.5L92.2,9.5z M90.6,9.6
		c0-2.4-0.7-3.2-1.8-3.2c-1.3,0-1.8,0.9-1.8,2.9c0,2.4,0.6,3.2,1.8,3.2C90,12.5,90.6,11.6,90.6,9.6L90.6,9.6z M99.5,5.5l-2.9,7.9
		h-1.4l-2.8-7.9l1.5-0.2l1.6,4.8c0.2,0.5,0.3,1.2,0.5,1.7c0.1-0.5,0.3-1.1,0.5-1.7l1.5-4.5H99.5L99.5,5.5z M106,9.8h-4.8v0.2
		c0,0.7,0.1,1.2,0.3,1.6c0.4,0.6,1.1,0.9,1.8,0.9c0.7,0,1.4-0.3,1.9-0.8l0.5,0.9c-0.8,0.7-1.7,1-2.7,1c-2.2,0-3.5-1.6-3.5-4.2
		c0-1.4,0.3-2.2,0.9-3c0.6-0.7,1.4-1.1,2.4-1.1c0.9,0,1.6,0.3,2.1,0.8c0.7,0.7,0.9,1.6,1,3.4V9.8L106,9.8z M104.5,8.7
		c0-0.8-0.2-1.4-0.5-1.8c-0.3-0.3-0.6-0.5-1.1-0.5c-1.1,0-1.6,0.9-1.6,2.3H104.5L104.5,8.7z M111.3,5.3l-0.5,1.4
		c-0.1,0-0.3-0.1-0.4-0.1c-0.9,0-1.6,0.7-1.6,1.6v5.1h-1.4V7.6c0-1-0.1-1.5-0.3-2l1.4-0.4c0.1,0.3,0.3,0.8,0.3,1.2v0.1
		c0.6-0.9,1.3-1.4,2.1-1.4C111,5.3,111.2,5.3,111.3,5.3L111.3,5.3z M118.2,13.4h-1.4V8.1c0-0.7-0.1-1-0.3-1.2
		c-0.2-0.2-0.4-0.3-0.8-0.3c-0.6,0-1.4,0.4-1.9,1v5.8h-1.4V7.5c0-0.9-0.1-1.3-0.3-1.9l1.4-0.4c0.2,0.4,0.3,0.7,0.3,1.2
		c0.5-0.4,0.7-0.6,1-0.8c0.5-0.3,1-0.4,1.5-0.4c0.8,0,1.6,0.4,1.9,1.1c0.1,0.3,0.2,0.6,0.2,1V13.4L118.2,13.4z M129.5,13.4h-1.4V7.7
		c0-0.9-0.3-1.2-0.9-1.2c-0.7,0-1.2,0.5-1.8,1.1v5.8h-1.4V7.8c0-0.9-0.3-1.2-1-1.2c-0.5,0-1.1,0.3-1.8,0.9v5.9h-1.4V7.6
		c0-1.1-0.1-1.4-0.3-2l1.3-0.3c0.2,0.3,0.3,0.7,0.3,1.1c0.7-0.7,1.5-1.1,2.2-1.1c0.7,0,1.5,0.4,1.9,1.2c0.8-0.8,1.6-1.2,2.4-1.2
		c1.2,0,2,0.8,2,2.2V13.4L129.5,13.4z M137,9.8h-4.8v0.2c0,0.7,0.1,1.2,0.3,1.6c0.4,0.6,1.1,0.9,1.8,0.9c0.7,0,1.4-0.3,1.9-0.8
		l0.5,0.9c-0.8,0.7-1.7,1-2.7,1c-2.2,0-3.5-1.6-3.5-4.2c0-1.4,0.3-2.2,0.9-3c0.6-0.7,1.4-1.1,2.4-1.1c0.9,0,1.6,0.3,2.1,0.8
		c0.7,0.7,0.9,1.6,1,3.4V9.8L137,9.8z M135.5,8.7c0-0.8-0.2-1.4-0.5-1.8c-0.3-0.3-0.6-0.5-1.1-0.5c-1.1,0-1.6,0.9-1.6,2.3H135.5
		L135.5,8.7z M144.1,13.4h-1.4V8.1c0-0.7-0.1-1-0.3-1.2c-0.2-0.2-0.4-0.3-0.8-0.3c-0.6,0-1.4,0.4-1.9,1v5.8h-1.4V7.5
		c0-0.9-0.1-1.3-0.3-1.9l1.4-0.4c0.2,0.4,0.3,0.7,0.3,1.2c0.5-0.4,0.7-0.6,1-0.8c0.5-0.3,1-0.4,1.5-0.4c0.8,0,1.6,0.4,1.9,1.1
		c0.1,0.3,0.2,0.6,0.2,1V13.4L144.1,13.4z M149.4,5.5l-0.4,1h-1.6v4.7c0,1,0.2,1.3,1,1.3c0.3,0,0.5,0,0.7-0.2l0.2,0.9
		c-0.4,0.2-0.9,0.3-1.4,0.3c-0.5,0-1.1-0.2-1.3-0.4c-0.3-0.3-0.6-0.5-0.6-1.6V6.5h-0.9v-1h0.9c0-0.6,0-1.4,0.1-2l1.5-0.3
		c-0.1,0.6-0.1,1.6-0.1,2.4H149.4L149.4,5.5z M15.3,9.8h-4.8v0.2c0,0.7,0.1,1.2,0.3,1.6c0.4,0.6,1.1,0.9,1.8,0.9
		c0.7,0,1.4-0.3,1.9-0.8l0.6,0.9c-0.8,0.7-1.7,1-2.7,1c-2.2,0-3.5-1.6-3.5-4.2c0-1.4,0.3-2.3,0.9-3.1c0.6-0.7,1.4-1.1,2.4-1.1
		c0.9,0,1.6,0.3,2.1,0.9c0.7,0.7,0.9,1.6,1,3.4V9.8L15.3,9.8z M13.8,8.7c0-0.8-0.2-1.4-0.5-1.8c-0.3-0.3-0.6-0.6-1.1-0.6
		c-1.1,0-1.7,0.9-1.7,2.3H13.8L13.8,8.7z M26.2,5.5l-2.2,8h-1.4l-1.2-4.3C21.3,8.6,21,7.3,21,7.3h0c0,0-0.3,1.3-0.4,1.8l-1.2,4.4
		h-1.4l-2.2-7.9l1.5-0.2l1,4.4c0.2,0.8,0.4,1.9,0.4,1.9h0c0,0,0.2-1.1,0.4-1.8l1.2-4.4h1.5l1.1,4.3c0.2,0.9,0.4,1.8,0.4,1.9h0.1
		c0-0.1,0.3-1.4,0.4-1.9l1-4.3H26.2L26.2,5.5z M41,9.8h-4.8v0.2c0,0.7,0.1,1.2,0.3,1.6c0.4,0.6,1.1,0.9,1.8,0.9
		c0.7,0,1.4-0.3,1.9-0.8l0.6,0.9c-0.8,0.7-1.7,1-2.7,1c-2.2,0-3.5-1.6-3.5-4.2c0-1.4,0.3-2.3,0.9-3.1c0.6-0.7,1.4-1.1,2.4-1.1
		c0.9,0,1.6,0.3,2.1,0.9c0.7,0.7,0.9,1.6,1,3.4V9.8L41,9.8z M39.4,8.7c0-0.8-0.2-1.4-0.5-1.8c-0.3-0.3-0.6-0.6-1.1-0.6
		c-1.1,0-1.7,0.9-1.7,2.3H39.4L39.4,8.7z M48.4,12.7l-0.7,1c-0.5-0.2-0.9-0.6-1.1-1.1c-0.2,0.3-0.9,1-2.2,1c-1.6,0-2.6-0.8-2.6-2.3
		c0-1.8,1.5-2.8,4-2.8c0.2,0,0.3,0,0.6,0V8c0-0.9-0.1-1.6-1.2-1.6c-0.8,0-1.8,0.4-2.4,0.9l-0.7-1c0.8-0.4,1.8-1,3.3-1
		c1.2,0,2,0.4,2.3,1.3c0.1,0.3,0.2,0.6,0.2,1.4c0,0.6-0.1,1.8-0.1,2.9C47.8,11.9,47.8,12.4,48.4,12.7L48.4,12.7z M46.4,9.5
		c-0.2,0-0.3,0-0.5,0c-1.1,0-1.8,0.2-2.1,0.6c-0.3,0.3-0.4,0.6-0.4,1.2c0,0.9,0.4,1.4,1.2,1.4c0.7,0,1.3-0.4,1.7-1L46.4,9.5
		L46.4,9.5z M51.9,13.4c-0.3,0.1-0.6,0.2-0.9,0.2c-0.6,0-0.9-0.2-1.2-0.6c-0.2-0.3-0.3-0.6-0.3-1.4V5.1c0-1.1,0-1.7-0.2-2.3l1.5-0.3
		c0.1,0.5,0.1,1.3,0.1,2.3v6.4c0,0.8,0,1,0.2,1.2c0.1,0.1,0.3,0.2,0.5,0.1L51.9,13.4L51.9,13.4z M59.1,12.7l-0.7,1
		c-0.5-0.2-0.9-0.6-1.1-1.1c-0.2,0.3-0.9,1-2.2,1c-1.6,0-2.6-0.8-2.6-2.3c0-1.8,1.5-2.8,4-2.8c0.2,0,0.3,0,0.6,0V8
		c0-0.9-0.1-1.6-1.2-1.6c-0.8,0-1.8,0.4-2.4,0.9l-0.7-1c0.8-0.4,1.8-1,3.3-1c1.2,0,2,0.4,2.3,1.3c0.1,0.3,0.2,0.6,0.2,1.4
		c0,0.6-0.1,1.8-0.1,2.9C58.4,11.9,58.5,12.4,59.1,12.7L59.1,12.7z M57,9.5c-0.2,0-0.3,0-0.5,0c-1.1,0-1.8,0.2-2.1,0.6
		c-0.3,0.3-0.4,0.6-0.4,1.2c0,0.9,0.4,1.4,1.2,1.4c0.7,0,1.3-0.4,1.7-1L57,9.5L57,9.5z M73.9,13.4h-1.4c-0.1-0.2-0.1-0.3-0.1-0.7
		c-0.6,0.6-1.2,0.9-2,0.9c-2,0-3.2-1.5-3.2-4c0-1.7,0.6-3,1.7-3.7c0.5-0.3,1-0.5,1.5-0.5c0.8,0,1.4,0.3,1.9,0.9c0-0.2,0-1.4,0-2V2.7
		l1.5,0.2v7.8C73.7,12,73.7,12.9,73.9,13.4L73.9,13.4z M72.2,11.4V7.3c-0.4-0.5-0.9-0.7-1.7-0.7c-0.6,0-1.1,0.3-1.4,0.8
		c-0.3,0.5-0.4,1.2-0.4,2.2c0,1.5,0.2,2,0.6,2.4c0.3,0.3,0.6,0.4,1.2,0.4C71.4,12.3,71.9,11.9,72.2,11.4L72.2,11.4z M65.9,13.4h-1.4
		V8.1c0-0.7-0.1-1-0.3-1.2c-0.2-0.2-0.4-0.3-0.8-0.3c-0.6,0-1.4,0.4-2,1v5.9h-0.7c-0.5,0-0.7-0.3-0.7-0.9v-5c0-0.9-0.1-1.3-0.3-1.9
		l1.4-0.4c0.2,0.4,0.3,0.7,0.3,1.2c0.5-0.4,0.7-0.6,1-0.8c0.5-0.3,1-0.4,1.5-0.4c0.8,0,1.6,0.4,1.9,1.1c0.1,0.3,0.2,0.6,0.2,1V13.4
		L65.9,13.4z"/>
</g>
</svg>
